<svg width="17" height="21" viewBox="0 0 17 21" fill="none" xmlns="http://www.w3.org/2000/svg">
<g id="test 1" clip-path="url(#clip0_1_10295)">
<path id="Vector" d="M12.2778 14.875C12.5283 14.875 12.7685 14.9672 12.9456 15.1313C13.1227 15.2954 13.2222 15.5179 13.2222 15.75C13.2222 15.9821 13.1227 16.2046 12.9456 16.3687C12.7685 16.5328 12.5283 16.625 12.2778 16.625H11.3333C11.0829 16.625 10.8426 16.5328 10.6655 16.3687C10.4884 16.2046 10.3889 15.9821 10.3889 15.75C10.3889 15.5179 10.4884 15.2954 10.6655 15.1313C10.8426 14.9672 11.0829 14.875 11.3333 14.875H12.2778ZM10.3889 13.125C10.1384 13.125 9.89818 13.0328 9.72107 12.8687C9.54395 12.7046 9.44444 12.4821 9.44444 12.25V11.375H7.55556V12.25C7.55556 12.4821 7.45605 12.7046 7.27893 12.8687C7.10182 13.0328 6.86159 13.125 6.61111 13.125C6.36063 13.125 6.12041 13.0328 5.94329 12.8687C5.76617 12.7046 5.66667 12.4821 5.66667 12.25V8.75001C5.66667 8.05382 5.96518 7.38614 6.49653 6.89386C7.02788 6.40158 7.74855 6.12501 8.5 6.12501C9.25145 6.12501 9.97212 6.40158 10.5035 6.89386C11.0348 7.38614 11.3333 8.05382 11.3333 8.75001V12.25C11.3333 12.4821 11.2338 12.7046 11.0567 12.8687C10.8796 13.0328 10.6394 13.125 10.3889 13.125ZM9.44444 9.62501V8.75001C9.44444 8.51795 9.34494 8.29539 9.16782 8.1313C8.9907 7.9672 8.75048 7.87501 8.5 7.87501C8.24952 7.87501 8.00929 7.9672 7.83218 8.1313C7.65506 8.29539 7.55556 8.51795 7.55556 8.75001V9.62501H9.44444ZM7.8285 14.2625L6.30606 15.6888C6.26341 15.7285 6.20594 15.7515 6.14549 15.7532C6.08505 15.7548 6.02623 15.7349 5.98117 15.6975L5.39939 15.1375C5.22405 14.9711 4.98455 14.8761 4.73358 14.8733C4.4826 14.8705 4.24071 14.9602 4.06111 15.1226C3.88152 15.2851 3.77893 15.507 3.77592 15.7395C3.77291 15.972 3.86972 16.1961 4.04506 16.3625L4.63628 16.926C5.03556 17.2952 5.57665 17.5026 6.14078 17.5026C6.70491 17.5026 7.246 17.2952 7.64528 16.926L9.1715 15.4875C9.32775 15.3193 9.40918 15.1024 9.39929 14.8806C9.38941 14.6589 9.28895 14.4489 9.11825 14.2932C8.94756 14.1375 8.71938 14.0477 8.47992 14.042C8.24046 14.0363 8.0076 14.1151 7.8285 14.2625ZM17 5.82489V16.625C16.9985 17.7849 16.5005 18.8969 15.6152 19.7171C14.73 20.5372 13.5297 20.9986 12.2778 21H4.72222C3.47027 20.9986 2.27003 20.5372 1.38476 19.7171C0.4995 18.8969 0.00149964 17.7849 0 16.625V4.37501C0.00149964 3.21512 0.4995 2.10313 1.38476 1.28296C2.27003 0.462786 3.47027 0.00140376 4.72222 1.43878e-05H10.7128C11.3333 -0.00146442 11.9479 0.111068 12.5212 0.331099C13.0944 0.551131 13.6148 0.874294 14.0524 1.28189L15.6164 2.73089C16.0563 3.13626 16.4051 3.61843 16.6426 4.14951C16.8801 4.68059 17.0016 5.25003 17 5.82489ZM12.7169 2.51914C12.5827 2.39546 12.4356 2.28438 12.2778 2.18751V4.37501H14.6389C14.534 4.22875 14.4138 4.09247 14.28 3.96814L12.7169 2.51914ZM15.1111 6.12501H12.2778C11.7768 6.12501 11.2964 5.94064 10.9421 5.61245C10.5879 5.28426 10.3889 4.83914 10.3889 4.37501V1.75001H4.72222C3.97078 1.75001 3.25011 2.02658 2.71875 2.51886C2.1874 3.01114 1.88889 3.67882 1.88889 4.37501V16.625C1.88889 17.3212 2.1874 17.9889 2.71875 18.4812C3.25011 18.9735 3.97078 19.25 4.72222 19.25H12.2778C13.0292 19.25 13.7499 18.9735 14.2812 18.4812C14.8126 17.9889 15.1111 17.3212 15.1111 16.625V6.12501Z" fill="white"/>
</g>
<defs>
<clipPath id="clip0_1_10295">
<rect width="17" height="21" fill="white"/>
</clipPath>
</defs>
</svg>
