<svg width="20" height="20" viewBox="0 0 20 20" fill="none" xmlns="http://www.w3.org/2000/svg">
<g id="Group 40229">
<path id="Vector" d="M10.5092 15.0871C10.5092 14.6507 10.1554 14.2969 9.71894 14.2969C9.28251 14.2969 8.92871 14.6507 8.92871 15.0871C8.92871 15.5235 9.28251 15.8773 9.71894 15.8773C10.1554 15.8773 10.5092 15.5235 10.5092 15.0871Z" fill="white"/>
<path id="Vector_2" d="M10.2856 4.16252C9.82992 4.07949 9.36153 4.09763 8.91362 4.21566C8.4657 4.33369 8.0492 4.54871 7.69358 4.84552C7.33797 5.14233 7.05193 5.51368 6.85571 5.93327C6.6595 6.35286 6.5579 6.81045 6.55811 7.27366C6.55811 7.48324 6.64136 7.68424 6.78956 7.83243C6.93776 7.98063 7.13875 8.06389 7.34834 8.06389C7.55792 8.06389 7.75892 7.98063 7.90711 7.83243C8.05531 7.68424 8.13857 7.48324 8.13857 7.27366C8.13837 7.04115 8.18947 6.81147 8.28823 6.60098C8.38699 6.39049 8.53097 6.20439 8.70992 6.05594C8.88886 5.90748 9.09835 5.80034 9.32345 5.74215C9.54856 5.68396 9.78373 5.67615 10.0122 5.71928C10.3244 5.77987 10.6114 5.93215 10.8366 6.15666C11.0618 6.38117 11.215 6.66771 11.2766 6.97969C11.3388 7.30717 11.2958 7.64592 11.1539 7.94752C11.012 8.24911 10.7783 8.49812 10.4863 8.65893C10.0029 8.93904 9.60332 9.34368 9.32938 9.83068C9.05544 10.3177 8.91711 10.8692 8.92879 11.4279V12.015C8.92879 12.2246 9.01205 12.4256 9.16025 12.5738C9.30844 12.722 9.50944 12.8053 9.71902 12.8053C9.92861 12.8053 10.1296 12.722 10.2778 12.5738C10.426 12.4256 10.5093 12.2246 10.5093 12.015V11.4279C10.4993 11.1529 10.562 10.8802 10.6911 10.6371C10.8201 10.3941 11.0108 10.1893 11.2442 10.0434C11.8167 9.72896 12.2778 9.24485 12.5639 8.65767C12.8501 8.07049 12.9473 7.40907 12.8422 6.76437C12.7372 6.11968 12.4349 5.52337 11.9771 5.05745C11.5193 4.59154 10.9284 4.2789 10.2856 4.16252Z" fill="white"/>
<path id="Vector_3" d="M9.70688 0.517578C7.83137 0.517578 5.99798 1.07373 4.43854 2.11571C2.87911 3.15769 1.66368 4.63869 0.945957 6.37144C0.22823 8.10419 0.0404396 10.0109 0.406334 11.8503C0.772228 13.6898 1.67537 15.3795 3.00156 16.7057C4.32775 18.0318 6.01741 18.935 7.85689 19.3009C9.69636 19.6668 11.603 19.479 13.3358 18.7613C15.0685 18.0435 16.5495 16.8281 17.5915 15.2687C18.6335 13.7092 19.1896 11.8758 19.1896 10.0003C19.1869 7.48619 18.187 5.07579 16.4092 3.29802C14.6314 1.52024 12.221 0.520297 9.70688 0.517578ZM9.70688 17.9026C8.14395 17.9026 6.61613 17.4392 5.3166 16.5709C4.01707 15.7025 3.00422 14.4684 2.40611 13.0244C1.80801 11.5805 1.65151 9.99157 1.95643 8.45867C2.26134 6.92578 3.01396 5.51772 4.11911 4.41257C5.22427 3.30741 6.63232 2.55479 8.16522 2.24988C9.69812 1.94497 11.287 2.10146 12.731 2.69956C14.1749 3.29767 15.4091 4.31053 16.2774 5.61005C17.1457 6.90958 17.6092 8.43741 17.6092 10.0003C17.6069 12.0954 16.7736 14.1041 15.2921 15.5856C13.8106 17.067 11.802 17.9003 9.70688 17.9026Z" fill="white"/>
</g>
</svg>
