<svg width="18" height="22" viewBox="0 0 18 22" fill="none" xmlns="http://www.w3.org/2000/svg">
<g id="ballot-check 1" clip-path="url(#clip0_1_10291)">
<path id="Vector" d="M8.94786 10.7533L7.36268 12.3326C7.09196 12.6109 6.7327 12.7509 6.37258 12.7509C6.00907 12.7509 5.64385 12.6082 5.36546 12.323L4.7857 11.7507C4.44687 11.4156 4.43581 10.8618 4.76187 10.5135C5.08793 10.1652 5.62767 10.1547 5.96565 10.489L6.36833 10.8871L7.76281 9.49763C8.09993 9.1625 8.63883 9.1695 8.96659 9.51688C9.2935 9.86338 9.28584 10.4164 8.94786 10.7533ZM12.612 15.375H10.058C9.58806 15.375 9.20666 15.767 9.20666 16.25C9.20666 16.733 9.58806 17.125 10.058 17.125H12.612C13.0819 17.125 13.4633 16.733 13.4633 16.25C13.4633 15.767 13.0819 15.375 12.612 15.375ZM12.612 4.875H10.058C9.58806 4.875 9.20666 5.267 9.20666 5.75C9.20666 6.233 9.58806 6.625 10.058 6.625H12.612C13.0819 6.625 13.4633 6.233 13.4633 5.75C13.4633 5.267 13.0819 4.875 12.612 4.875ZM12.612 10.125H10.9093C10.4394 10.125 10.058 10.517 10.058 11C10.058 11.483 10.4394 11.875 10.9093 11.875H12.612C13.0819 11.875 13.4633 11.483 13.4633 11C13.4633 10.517 13.0819 10.125 12.612 10.125ZM6.22701 14.9375C5.5221 14.9375 4.95001 15.5255 4.95001 16.25C4.95001 16.9745 5.5221 17.5625 6.22701 17.5625C6.93191 17.5625 7.504 16.9745 7.504 16.25C7.504 15.5255 6.93191 14.9375 6.22701 14.9375ZM6.22701 7.0625C6.93191 7.0625 7.504 6.4745 7.504 5.75C7.504 5.0255 6.93191 4.4375 6.22701 4.4375C5.5221 4.4375 4.95001 5.0255 4.95001 5.75C4.95001 6.4745 5.5221 7.0625 6.22701 7.0625ZM17.72 4.875V17.125C17.72 19.5374 15.8104 21.5 13.4633 21.5H4.95001C2.60289 21.5 0.693359 19.5374 0.693359 17.125V4.875C0.693359 2.46263 2.60289 0.5 4.95001 0.5H13.4633C15.8104 0.5 17.72 2.46263 17.72 4.875ZM16.0173 4.875C16.0173 3.42775 14.8714 2.25 13.4633 2.25H4.95001C3.54191 2.25 2.39602 3.42775 2.39602 4.875V17.125C2.39602 18.5723 3.54191 19.75 4.95001 19.75H13.4633C14.8714 19.75 16.0173 18.5723 16.0173 17.125V4.875Z" fill="white"/>
</g>
<defs>
<clipPath id="clip0_1_10291">
<rect width="17" height="21" fill="white" transform="translate(0.707031 0.5)"/>
</clipPath>
</defs>
</svg>
