<svg width="27" height="27" viewBox="0 0 27 27" fill="none" xmlns="http://www.w3.org/2000/svg">
<g id="Group">
<path id="Vector (Stroke)" fill-rule="evenodd" clip-rule="evenodd" d="M7.5 17.25C6.10761 17.25 4.77225 17.8031 3.78769 18.7877C2.80312 19.7723 2.25 21.1076 2.25 22.5C2.25 23.0967 2.48705 23.669 2.90901 24.091C3.33097 24.5129 3.90326 24.75 4.5 24.75H22.5C23.0967 24.75 23.669 24.5129 24.091 24.091C24.5129 23.669 24.75 23.0967 24.75 22.5C24.75 21.1076 24.1969 19.7723 23.2123 18.7877C22.2277 17.8031 20.8924 17.25 19.5 17.25H7.5ZM2.72703 17.727C3.9929 16.4612 5.70979 15.75 7.5 15.75H19.5C21.2902 15.75 23.0071 16.4612 24.273 17.727C25.5388 18.9929 26.25 20.7098 26.25 22.5C26.25 23.4946 25.8549 24.4484 25.1516 25.1516C24.4484 25.8549 23.4946 26.25 22.5 26.25H4.5C3.50544 26.25 2.55161 25.8549 1.84835 25.1516C1.14509 24.4484 0.75 23.4946 0.75 22.5C0.75 20.7098 1.46116 18.9929 2.72703 17.727Z" fill="#248B00"/>
<path id="Vector (Stroke)_2" fill-rule="evenodd" clip-rule="evenodd" d="M13.5 2.25C11.4289 2.25 9.75 3.92893 9.75 6C9.75 8.07107 11.4289 9.75 13.5 9.75C15.5711 9.75 17.25 8.07107 17.25 6C17.25 3.92893 15.5711 2.25 13.5 2.25ZM8.25 6C8.25 3.1005 10.6005 0.75 13.5 0.75C16.3995 0.75 18.75 3.1005 18.75 6C18.75 8.8995 16.3995 11.25 13.5 11.25C10.6005 11.25 8.25 8.8995 8.25 6Z" fill="#248B00"/>
</g>
</svg>
